<?xml version="1.0" encoding="UTF-8"?>
<svg width="223px" height="39px" viewBox="0 0 223 39" version="1.1" xmlns="http://www.w3.org/2000/svg" xmlns:xlink="http://www.w3.org/1999/xlink">
    <!-- Generator: Sketch 50.2 (55047) - http://www.bohemiancoding.com/sketch -->
    <title>vivekbedi logo</title>
    <desc>Created with Sketch.</desc>
    <defs>
        <path d="M10.1,47.7499695 L0.45,21.5499695 L7.35,21.5499695 L14,42.2999695 L20.7,21.5499695 L27,21.5499695 L17.35,47.7499695 L10.1,47.7499695 Z M30.5,47.7499695 L30.5,21.5499695 L37.2,21.5499695 L37.2,47.7499695 L30.5,47.7499695 Z M30.5,17.8999695 L30.5,11.2499695 L37.2,11.2499695 L37.2,17.8999695 L30.5,17.8999695 Z M50.3,47.7499695 L40.65,21.5499695 L47.55,21.5499695 L54.2,42.2999695 L60.9,21.5499695 L67.2,21.5499695 L57.55,47.7499695 L50.3,47.7499695 Z M81.95,48.2499695 C79.8499895,48.2499695 77.9500085,47.8916398 76.25,47.1749695 C74.5499915,46.4582993 73.100006,45.483309 71.9,44.2499695 C70.699994,43.01663 69.7750032,41.583311 69.125,39.9499695 C68.4749968,38.316628 68.15,36.5999785 68.15,34.7999695 C68.15,32.9332935 68.4666635,31.1749778 69.1,29.5249695 C69.7333365,27.8749613 70.649994,26.4249758 71.85,25.1749695 C73.050006,23.9249633 74.5083247,22.9333065 76.225,22.1999695 C77.9416753,21.4666325 79.866656,21.0999695 82,21.0999695 C84.133344,21.0999695 86.0416582,21.4666325 87.725,22.1999695 C89.4083418,22.9333065 90.8416608,23.91663 92.025,25.1499695 C93.2083392,26.383309 94.1083302,27.816628 94.725,29.4499695 C95.3416698,31.083311 95.65,32.783294 95.65,34.5499695 C95.65,34.983305 95.6416668,35.3999675 95.625,35.7999695 C95.6083332,36.1999715 95.566667,36.5333015 95.5,36.7999695 L75.25,36.7999695 C75.3500005,37.833308 75.599998,38.7499655 76,39.5499695 C76.400002,40.3499735 76.9166635,41.0333 77.55,41.5999695 C78.1833365,42.166639 78.899996,42.599968 79.7,42.8999695 C80.500004,43.199971 81.333329,43.3499695 82.2,43.3499695 C83.53334,43.3499695 84.7916608,43.0249728 85.975,42.3749695 C87.1583392,41.7249663 87.9666645,40.8666415 88.4,39.7999695 L94.15,41.3999695 C93.1833285,43.3999795 91.6416773,45.0416298 89.525,46.3249695 C87.4083227,47.6083093 84.883348,48.2499695 81.95,48.2499695 Z M88.75,32.4499695 C88.5833325,30.483293 87.8583397,28.9083088 86.575,27.7249695 C85.2916603,26.5416303 83.7333425,25.9499695 81.9,25.9499695 C80.9999955,25.9499695 80.1583373,26.1083013 79.375,26.4249695 C78.5916628,26.7416378 77.900003,27.1833 77.3,27.7499695 C76.699997,28.316639 76.2083353,28.9999655 75.825,29.7999695 C75.4416648,30.5999735 75.216667,31.483298 75.15,32.4499695 L88.75,32.4499695 Z M117.65,47.7499695 L110.05,36.3999695 L106.45,39.9499695 L106.45,47.7499695 L99.75,47.7499695 L99.75,11.2499695 L106.45,11.2499695 L106.45,33.3999695 L116.95,21.5999695 L124.1,21.5999695 L114.35,32.6999695 L124.8,47.7499695 L117.65,47.7499695 Z" id="path-1"></path>
        <path d="M142.672223,47.5 C140.605546,47.5 138.672232,46.9500055 136.872223,45.85 C135.072214,44.7499945 133.655562,43.366675 132.622223,41.7 L132.622223,47 L131.022223,47 L131.022223,10.5 L132.722223,10.5 L132.722223,26.9 C133.988896,25.033324 135.480548,23.5166725 137.197223,22.35 C138.913898,21.1833275 140.888879,20.6 143.122223,20.6 C145.022233,20.6 146.713882,20.999996 148.197223,21.8 C149.680564,22.600004 150.930551,23.633327 151.947223,24.9 C152.963895,26.166673 153.74722,27.6083253 154.297223,29.225 C154.847226,30.8416747 155.122223,32.4666585 155.122223,34.1 C155.122223,35.8666755 154.80556,37.5583252 154.172223,39.175 C153.538887,40.7916747 152.655562,42.2166605 151.522223,43.45 C150.388884,44.6833395 149.063897,45.666663 147.547223,46.4 C146.030549,47.133337 144.405565,47.5 142.672223,47.5 Z M142.422223,45.9 C144.022231,45.9 145.497216,45.5583368 146.847223,44.875 C148.19723,44.1916632 149.355552,43.3000055 150.322223,42.2 C151.288895,41.0999945 152.04722,39.8416737 152.597223,38.425 C153.147226,37.0083262 153.422223,35.566674 153.422223,34.1 C153.422223,32.566659 153.163892,31.0833405 152.647223,29.65 C152.130554,28.2166595 151.413894,26.9500055 150.497223,25.85 C149.580552,24.7499945 148.47223,23.86667 147.172223,23.2 C145.872217,22.53333 144.438898,22.2 142.872223,22.2 C141.705551,22.2 140.605562,22.399998 139.572223,22.8 C138.538885,23.200002 137.597227,23.73333 136.747223,24.4 C135.897219,25.06667 135.13056,25.833329 134.447223,26.7 C133.763886,27.566671 133.188892,28.4833285 132.722223,29.45 L132.722223,38.5 C132.822224,39.500005 133.19722,40.4499955 133.847223,41.35 C134.497226,42.2500045 135.297218,43.0416632 136.247223,43.725 C137.197228,44.4083368 138.222218,44.9416648 139.322223,45.325 C140.422229,45.7083353 141.455552,45.9 142.422223,45.9 Z M172.172223,47.5 C170.405548,47.5 168.755564,47.1416703 167.222223,46.425 C165.688882,45.7083298 164.347229,44.7250062 163.197223,43.475 C162.047217,42.2249938 161.147226,40.7750082 160.497223,39.125 C159.84722,37.4749918 159.522223,35.716676 159.522223,33.85 C159.522223,32.0166575 159.838887,30.300008 160.472223,28.7 C161.10556,27.099992 161.988884,25.700006 163.122223,24.5 C164.255562,23.299994 165.572216,22.3500035 167.072223,21.65 C168.572231,20.9499965 170.205548,20.6 171.972223,20.6 C173.772232,20.6 175.438882,20.9499965 176.972223,21.65 C178.505564,22.3500035 179.838884,23.3083272 180.972223,24.525 C182.105562,25.7416727 182.99722,27.1666585 183.647223,28.8 C184.297226,30.4333415 184.622223,32.1666575 184.622223,34 L184.622223,34.4 C184.622223,34.600001 184.605557,34.7166665 184.572223,34.75 L161.272223,34.75 C161.405557,36.350008 161.780553,37.8416597 162.397223,39.225 C163.013893,40.6083402 163.813885,41.799995 164.797223,42.8 C165.780561,43.800005 166.913883,44.5916638 168.197223,45.175 C169.480563,45.7583362 170.838883,46.05 172.272223,46.05 C173.205561,46.05 174.130552,45.9250013 175.047223,45.675 C175.963894,45.4249988 176.822219,45.066669 177.622223,44.6 C178.422227,44.133331 179.12222,43.5750033 179.722223,42.925 C180.322226,42.2749967 180.805555,41.5666705 181.172223,40.8 L182.722223,41.2 C182.355555,42.1000045 181.822227,42.9416627 181.122223,43.725 C180.42222,44.5083372 179.597228,45.1749973 178.647223,45.725 C177.697218,46.2750027 176.672229,46.7083317 175.572223,47.025 C174.472218,47.3416682 173.338896,47.5 172.172223,47.5 Z M182.922223,33.3 C182.822223,31.6666585 182.472226,30.1666735 181.872223,28.8 C181.27222,27.4333265 180.480561,26.250005 179.497223,25.25 C178.513885,24.249995 177.388896,23.4750028 176.122223,22.925 C174.85555,22.3749972 173.488897,22.1 172.022223,22.1 C170.555549,22.1 169.188896,22.3833305 167.922223,22.95 C166.65555,23.5166695 165.547228,24.299995 164.597223,25.3 C163.647218,26.300005 162.880559,27.4833265 162.297223,28.85 C161.713887,30.2166735 161.372224,31.699992 161.272223,33.3 L182.922223,33.3 Z M200.972223,47.5 C199.172214,47.5 197.505564,47.1166705 195.972223,46.35 C194.438882,45.5833295 193.113895,44.5750063 191.997223,43.325 C190.880551,42.0749937 190.013893,40.650008 189.397223,39.05 C188.780553,37.449992 188.472223,35.8000085 188.472223,34.1 C188.472223,32.299991 188.77222,30.5833415 189.372223,28.95 C189.972226,27.3166585 190.805551,25.8833395 191.872223,24.65 C192.938895,23.4166605 194.205549,22.433337 195.672223,21.7 C197.138897,20.966663 198.738881,20.6 200.472223,20.6 C201.638896,20.6 202.738885,20.766665 203.772223,21.1 C204.805562,21.433335 205.763885,21.8916637 206.647223,22.475 C207.530561,23.0583362 208.330553,23.7333295 209.047223,24.5 C209.763893,25.2666705 210.372221,26.0666625 210.872223,26.9 L210.872223,10.5 L212.572223,10.5 L212.572223,44.3 C212.572223,45.033337 212.87222,45.4 213.472223,45.4 L213.472223,47 C213.372223,47.0333335 213.238891,47.05 213.072223,47.05 C212.47222,47.05 211.972225,46.8250022 211.572223,46.375 C211.172221,45.9249978 210.972223,45.4166695 210.972223,44.85 L210.972223,41.7 C210.438887,42.566671 209.797227,43.3583297 209.047223,44.075 C208.297219,44.7916702 207.488894,45.3999975 206.622223,45.9 C205.755552,46.4000025 204.838895,46.7916653 203.872223,47.075 C202.905552,47.3583347 201.938895,47.5 200.972223,47.5 Z M201.172223,45.9 C202.138895,45.9 203.172218,45.700002 204.272223,45.3 C205.372229,44.899998 206.397218,44.3583367 207.347223,43.675 C208.297228,42.9916633 209.09722,42.1916712 209.747223,41.275 C210.397226,40.3583287 210.772223,39.400005 210.872223,38.4 L210.872223,29.45 C210.505555,28.449995 209.963893,27.5083377 209.247223,26.625 C208.530553,25.7416622 207.705561,24.9750033 206.772223,24.325 C205.838885,23.6749967 204.847228,23.1583352 203.797223,22.775 C202.747218,22.3916648 201.722228,22.2 200.722223,22.2 C199.122215,22.2 197.67223,22.5416632 196.372223,23.225 C195.072217,23.9083367 193.972228,24.8083277 193.072223,25.925 C192.172219,27.0416722 191.472226,28.3083262 190.972223,29.725 C190.472221,31.1416737 190.222223,32.5999925 190.222223,34.1 C190.222223,35.6666745 190.505554,37.1583263 191.072223,38.575 C191.638893,39.9916738 192.413885,41.2416612 193.397223,42.325 C194.380561,43.4083387 195.538883,44.2749967 196.872223,44.925 C198.205563,45.5750033 199.638882,45.9 201.172223,45.9 Z M220.772223,47 L220.772223,21 L222.472223,21 L222.472223,47 L220.772223,47 Z M220.772223,14.7 L220.772223,10.5 L222.472223,10.5 L222.472223,14.7 L220.772223,14.7 Z" id="path-2"></path>
    </defs>
    <g id="Page-1" stroke="none" stroke-width="1" fill="none" fill-rule="evenodd">
        <g id="vivekbedi-logo" transform="translate(0.000000, -10.000000)">
            <g id="vivek">
                <use fill="#000000" xlink:href="#path-1"></use>
                <use fill="#E41D3C" xlink:href="#path-1"></use>
            </g>
            <g id="bedi">
                <use fill="#000000" xlink:href="#path-2"></use>
                <use fill="#E41D3C" xlink:href="#path-2"></use>
            </g>
        </g>
    </g>
</svg>